<?xml version="1.0" encoding="utf-8"?>
<!-- Generator: Adobe Illustrator 16.0.0, SVG Export Plug-In . SVG Version: 6.00 Build 0)  -->
<!DOCTYPE svg PUBLIC "-//W3C//DTD SVG 1.1//EN" "http://www.w3.org/Graphics/SVG/1.1/DTD/svg11.dtd">
<svg version="1.1" id="Ebene_1" xmlns="http://www.w3.org/2000/svg" xmlns:xlink="http://www.w3.org/1999/xlink" x="0px" y="0px"
	 width="256px" height="256px" viewBox="0 0 256 256" enable-background="new 0 0 256 256" xml:space="preserve">
<path fill="#FFFFFF" d="M0,0h256v256H0V0z"/>
<path fill="#999999" d="M0,0v256h256V0H0z M18.286,18.286h219.428v219.428H18.286V18.286z"/>
<path fill="#666666" d="M36.571,36.571h182.857v18.286H36.571V36.571z"/>
<path fill="#B9B9B9" d="M36.571,73.143h182.857v18.286H36.571V73.143z"/>
<path fill="#5599FF" d="M109.714,109.714h109.715v109.714H109.714V109.714z"/>
<path fill="#FFFFFF" d="M182.857,201.144H128l13.714-18.286l13.715-18.285l13.714,18.285L182.857,201.144z"/>
<path fill="#FFFFFF" d="M201.143,201.144h-48.768l12.196-12.197l12.196-12.178l12.178,12.178L201.143,201.144z"/>
<ellipse fill="#FFFFFF" cx="192" cy="155.429" rx="9.143" ry="9.143"/>
<path fill="#B9B9B9" d="M36.571,109.714h54.857V128H36.571V109.714z M36.571,146.286h54.857v18.286H36.571V146.286z M36.571,182.857
	h54.857v18.286H36.571V182.857z"/>
</svg>
